<svg width="88" height="88" viewBox="0 0 88 88" fill="none" xmlns="http://www.w3.org/2000/svg">
<rect x="0.465088" y="0.464844" width="87.3239" height="87.3239" rx="26" fill="#4C2A18"/>
<path fill-rule="evenodd" clip-rule="evenodd" d="M71.6613 32.2707C71.6613 29.7835 70.6728 27.3976 68.9152 25.6382C67.1558 23.8806 64.7699 22.8921 62.2827 22.8921C52.3 22.8921 34.7507 22.8921 24.7681 22.8921C22.2808 22.8921 19.8949 23.8806 18.1355 25.6382C16.3779 27.3976 15.3894 29.7835 15.3894 32.2707C15.3894 38.8095 15.3894 48.2407 15.3894 54.7795C15.3894 57.2667 16.3779 59.6527 18.1355 61.4121C19.8949 63.1697 22.2808 64.1582 24.7681 64.1582C34.7507 64.1582 52.3 64.1582 62.2827 64.1582C64.7699 64.1582 67.1558 63.1697 68.9152 61.4121C70.6728 59.6527 71.6613 57.2667 71.6613 54.7795C71.6613 48.2407 71.6613 38.8095 71.6613 32.2707ZM21.8494 31.8562C21.8494 31.8562 31.5001 39.8037 37.553 44.7875C41.0213 47.6442 46.0295 47.6386 49.4921 44.7744C55.5638 39.753 65.2726 31.7212 65.2726 31.7212C66.0698 31.0609 66.1823 29.8773 65.522 29.0801C64.8637 28.2829 63.6801 28.1704 62.881 28.8307C62.881 28.8307 53.1722 36.8607 47.1024 41.8839C45.0241 43.602 42.0191 43.6058 39.9371 41.8914L24.2335 28.9601C23.4344 28.3017 22.2527 28.4161 21.5943 29.2152C20.9359 30.0142 21.0504 31.1978 21.8494 31.8562Z" fill="white"/>
</svg>
