<svg width="89" height="88" viewBox="0 0 89 88" fill="none" xmlns="http://www.w3.org/2000/svg">
<rect x="0.828125" y="0.506348" width="87.3239" height="87.3239" rx="26" fill="#4C2A18"/>
<g clip-path="url(#clip0_44_13)">
<path fill-rule="evenodd" clip-rule="evenodd" d="M43.8067 17.4697C28.6992 17.4697 16.4863 29.7299 16.4863 44.8975C16.4863 57.0217 24.3115 67.2846 35.1672 70.917C36.5244 71.1901 37.0216 70.3268 37.0216 69.6007C37.0216 68.9648 36.9769 66.7853 36.9769 64.5144C29.377 66.1494 27.7944 61.2448 27.7944 61.2448C26.5731 58.0661 24.7634 57.2491 24.7634 57.2491C22.276 55.5689 24.9446 55.5689 24.9446 55.5689C27.7038 55.7506 29.1516 58.3843 29.1516 58.3843C31.5938 62.5617 35.529 61.3813 37.1122 60.6546C37.3381 58.8836 38.0623 57.6576 38.8312 56.9766C32.7698 56.3407 26.3924 53.9795 26.3924 43.4441C26.3924 40.447 27.4773 37.995 29.1964 36.088C28.9251 35.407 27.975 32.591 29.4682 28.8221C29.4682 28.8221 31.775 28.0954 36.9763 31.6375C39.2032 31.0371 41.4997 30.7317 43.8067 30.7291C46.1135 30.7291 48.465 31.0474 50.6365 31.6375C55.8384 28.0954 58.1452 28.8221 58.1452 28.8221C59.6383 32.591 58.6876 35.407 58.4164 36.088C60.1807 37.995 61.2209 40.447 61.2209 43.4441C61.2209 53.9795 54.8435 56.295 48.7368 56.9766C49.7322 57.8393 50.5912 59.4738 50.5912 62.0623C50.5912 65.7404 50.5464 68.6923 50.5464 69.6001C50.5464 70.3268 51.0441 71.1901 52.4008 70.9176C63.2565 67.2841 71.0817 57.0217 71.0817 44.8975C71.1264 29.7299 58.8688 17.4697 43.8067 17.4697Z" fill="white"/>
</g>
<defs>
<clipPath id="clip0_44_13">
<rect x="16.4863" y="17.4697" width="54.8039" height="53.4991" rx="26" fill="white"/>
</clipPath>
</defs>
</svg>
