<svg width="88" height="88" viewBox="0 0 88 88" fill="none" xmlns="http://www.w3.org/2000/svg">
<rect x="0.00976562" y="0.0268555" width="87.3239" height="87.3239" rx="26" fill="#4C2A18"/>
<path d="M45.0269 47.0452L51.9161 53.9342L29.2465 67.0226C28.0161 67.733 26.6237 67.6022 25.5807 66.9251L25.3275 66.7446L45.0269 47.0452ZM23.9863 26.0046L41.7207 43.739L23.9863 61.4734V26.0046ZM56.1082 35.9641L64.3145 40.7021C66.6524 42.0518 66.6524 45.4263 64.3145 46.7759L56.1082 51.5138L48.3333 43.739L56.1082 35.9641ZM29.2465 20.4555L51.9159 33.5437L45.0269 40.4328L25.3276 20.7334C26.3906 19.9036 27.9135 19.6859 29.2465 20.4555Z" fill="white"/>
</svg>
