<svg width="88" height="89" viewBox="0 0 88 89" fill="none" xmlns="http://www.w3.org/2000/svg">
<rect x="0.646729" y="0.98584" width="87.3239" height="87.3239" rx="26" fill="#4C2A18"/>
<path fill-rule="evenodd" clip-rule="evenodd" d="M18.6691 42.2323C32.2127 36.3444 41.2439 32.4628 45.7626 30.5874C58.6646 25.2327 61.3455 24.3025 63.0929 24.2718C63.4773 24.2651 64.3366 24.3601 64.8932 24.8108C65.3632 25.1913 65.4925 25.7054 65.5544 26.0662C65.6163 26.427 65.6933 27.2489 65.6321 27.8911C64.9329 35.2213 61.9077 53.0096 60.3686 61.2196C59.7173 64.6935 58.435 65.8583 57.1936 65.9722C54.4956 66.22 52.447 64.1932 49.8339 62.484C45.7449 59.8095 43.4349 58.1446 39.4659 55.5347C34.879 52.5186 37.8525 50.8609 40.4666 48.1518C41.1507 47.4428 53.0378 36.6541 53.2679 35.6754C53.2967 35.553 53.3234 35.0967 53.0517 34.8558C52.7801 34.6149 52.3791 34.6973 52.0898 34.7628C51.6797 34.8557 45.1476 39.1637 32.4934 47.6871C30.6393 48.9575 28.9599 49.5765 27.4552 49.544C25.7964 49.5083 22.6055 48.6081 20.2334 47.8388C17.3239 46.8951 15.0115 46.3961 15.2129 44.7935C15.3178 43.9587 16.4699 43.105 18.6691 42.2323Z" fill="white"/>
</svg>
